<svg width="18" height="20" viewBox="0 0 18 20" fill="none" xmlns="http://www.w3.org/2000/svg">
<path d="M5.4 1H2.6C1.71634 1 1 1.71634 1 2.6V7.4C1 8.28366 1.71634 9 2.6 9H5.4C6.28366 9 7 8.28366 7 7.4V2.6C7 1.71634 6.28366 1 5.4 1Z" stroke="white" stroke-width="1.5" stroke-miterlimit="10" stroke-linejoin="round"/>
<path d="M5.4 13H2.6C1.71634 13 1 13.7163 1 14.6V17.4C1 18.2837 1.71634 19 2.6 19H5.4C6.28366 19 7 18.2837 7 17.4V14.6C7 13.7163 6.28366 13 5.4 13Z" stroke="white" stroke-width="1.5" stroke-miterlimit="10" stroke-linejoin="round"/>
<path d="M15.4 1H12.6C11.7163 1 11 1.71634 11 2.6V5.4C11 6.28366 11.7163 7 12.6 7H15.4C16.2837 7 17 6.28366 17 5.4V2.6C17 1.71634 16.2837 1 15.4 1Z" stroke="white" stroke-width="1.5" stroke-miterlimit="10" stroke-linejoin="round"/>
<path d="M15.4 11H12.6C11.7163 11 11 11.7163 11 12.6V17.4C11 18.2837 11.7163 19 12.6 19H15.4C16.2837 19 17 18.2837 17 17.4V12.6C17 11.7163 16.2837 11 15.4 11Z" stroke="white" stroke-width="1.5" stroke-miterlimit="10" stroke-linejoin="round"/>
</svg>
