<svg width="22" height="20" viewBox="0 0 22 20" fill="none" xmlns="http://www.w3.org/2000/svg">
<path d="M7 6H15M7 9H15M18 14H15.475C15.175 14 14.8875 14.1375 14.7 14.375L11.775 18.025C11.375 18.525 10.6125 18.525 10.2125 18.025L7.2875 14.375C7.1 14.1375 6.8125 14 6.5125 14H4C2.3375 14 1 12.6625 1 11V4C1 2.3375 2.3375 1 4 1H18C19.6625 1 21 2.3375 21 4V11C21 12.6625 19.6625 14 18 14Z" stroke="white" stroke-width="1.5" stroke-miterlimit="10" stroke-linecap="round" stroke-linejoin="round"/>
</svg>
